<?xml version="1.0" encoding="utf-8"?>
<!-- Generator: Adobe Illustrator 21.0.0, SVG Export Plug-In . SVG Version: 6.00 Build 0)  -->
<svg version="1.1" id="Calque_1" xmlns="http://www.w3.org/2000/svg" xmlns:xlink="http://www.w3.org/1999/xlink" x="0px" y="0px"
	 viewBox="0 0 500 200" style="enable-background:new 0 0 500 200;" xml:space="preserve">
<style type="text/css">
	.st0{fill:#FFFFFF;}
</style>
<g>
	<path class="st0" d="M8.5,39.6h11.7v105.8h45.1v11.3H8.5V39.6z"/>
	<path class="st0" d="M139.6,36.6c17.7,0,32.6,5.9,44.5,17.8S202,80.8,202,98.1c0,17.1-6,31.7-17.9,43.6
		c-11.9,11.9-26.5,17.9-43.6,17.9c-17.4,0-32-5.9-44-17.8c-12-11.9-17.9-26.3-17.9-43.2c0-11.3,2.7-21.7,8.2-31.3
		c5.4-9.6,12.9-17.1,22.3-22.6S128.6,36.6,139.6,36.6z M140.1,48c-8.7,0-16.9,2.3-24.6,6.8S101.6,65.4,97.3,73
		c-4.4,7.7-6.5,16.2-6.5,25.6c0,13.9,4.8,25.7,14.5,35.3c9.7,9.6,21.3,14.4,34.9,14.4c9.1,0,17.5-2.2,25.2-6.6
		c7.7-4.4,13.8-10.4,18.1-18.1s6.5-16.2,6.5-25.5c0-9.3-2.2-17.7-6.5-25.2c-4.3-7.5-10.4-13.5-18.3-18S148.9,48,140.1,48z"/>
	<path class="st0" d="M338.5,59.2l-9.1,8.6c-6.5-6.4-13.7-11.3-21.5-14.6s-15.4-5-22.7-5c-9.2,0-17.9,2.3-26.2,6.8
		c-8.3,4.5-14.7,10.6-19.3,18.4c-4.6,7.7-6.8,15.9-6.8,24.5c0,8.8,2.4,17.2,7.1,25.1c4.7,7.9,11.3,14.2,19.6,18.7
		c8.3,4.5,17.5,6.8,27.4,6.8c12.1,0,22.2-3.4,30.6-10.2c8.3-6.8,13.3-15.6,14.8-26.4H295v-11.3h50.5c-0.1,18.1-5.5,32.5-16.1,43.1
		c-10.6,10.6-24.9,16-42.7,16c-21.7,0-38.8-7.4-51.4-22.1c-9.7-11.4-14.6-24.5-14.6-39.4c0-11.1,2.8-21.4,8.4-31
		c5.6-9.6,13.2-17,22.9-22.4c9.7-5.4,20.7-8.1,33-8.1c9.9,0,19.3,1.8,28,5.4S330.2,51.3,338.5,59.2z"/>
	<path class="st0" d="M423.5,36.6c17.7,0,32.6,5.9,44.5,17.8S486,80.8,486,98.1c0,17.1-6,31.7-17.9,43.6
		c-11.9,11.9-26.5,17.9-43.6,17.9c-17.4,0-32-5.9-44-17.8c-11.9-11.9-17.9-26.3-17.9-43.2c0-11.3,2.7-21.7,8.2-31.3
		c5.4-9.6,12.9-17.1,22.3-22.6C402.4,39.3,412.6,36.6,423.5,36.6z M424,48c-8.7,0-16.9,2.3-24.6,6.8c-7.8,4.5-13.8,10.6-18.2,18.2
		c-4.4,7.7-6.5,16.2-6.5,25.6c0,13.9,4.8,25.7,14.5,35.3c9.6,9.6,21.3,14.4,34.9,14.4c9.1,0,17.5-2.2,25.2-6.6
		c7.7-4.4,13.8-10.4,18.1-18.1c4.3-7.7,6.5-16.2,6.5-25.5c0-9.3-2.2-17.7-6.5-25.2c-4.3-7.5-10.4-13.5-18.3-18
		C441.2,50.3,432.9,48,424,48z"/>
</g>
</svg>
