<?xml version="1.0" encoding="utf-8"?>
<!-- Generator: Adobe Illustrator 21.0.0, SVG Export Plug-In . SVG Version: 6.00 Build 0)  -->
<svg version="1.1" id="Calque_1" xmlns="http://www.w3.org/2000/svg" xmlns:xlink="http://www.w3.org/1999/xlink" x="0px" y="0px"
	 viewBox="0 0 593 413" style="enable-background:new 0 0 593 413;" xml:space="preserve">
<style type="text/css">
	.st0{fill:#FFFFFF;}
</style>
<g>
	<path class="st0" d="M475.8,83.2l-349.5,18c-19.6,1-35.4,22.8-33.6,37.3s18,115.7,24.3,140.9c6.3,25.2,17.7,34.6,37.3,33.6l38.8-2
		l5.5,45.3c0.5,4.4,5.1,9.4,10.8,6.9c4.8-2.2,42.2-43,53.7-55.7l189.8-9.8c19.6-1,29.6-18.5,33.6-37.3s22.7-123.8,26.7-143.6
		S495.4,82.2,475.8,83.2z"/>
</g>
<path d="M463.7,77.1c10.1,0,20.4,4.6,26.2,11.7c2.7,3.3,5.7,8.8,4.3,15.9c-1.8,8.8-6.4,34.5-11.4,61.6c-6.1,33.5-13,71.5-15.3,81.9
	c-2.6,12-9.8,32.4-29,33.3l-189.8,9.8l-2.1,0.1l-1.4,1.5c-31.8,35-49,52.5-52.2,54.6c-0.3,0.1-0.6,0.2-0.9,0.2
	c-1.3,0-2.6-1.7-2.7-3.1l0,0l0,0l-5.5-45.3l-0.6-4.6l-4.7,0.2l-38.8,2c-0.8,0-1.7,0.1-2.5,0.1c-7.9,0-13.7-2.1-18.3-6.5
	c-4.9-4.7-8.6-12.4-11.4-23.5c-6.3-25.1-22.4-125.4-24.2-140.3c-0.7-5.7,2.4-13.5,7.8-20c5.9-7.1,13.7-11.3,21.1-11.7l349.5-18
	C462.6,77.1,463.1,77.1,463.7,77.1 M463.7,72.1c-0.6,0-1.3,0-1.9,0l-349.5,18c-19.6,1-35.4,22.8-33.6,37.3
	c1.7,14.4,18,115.7,24.3,140.9c6,24,16.6,33.7,34.5,33.7c0.9,0,1.8,0,2.7-0.1l38.8-2l5.5,45.3c0.4,3.6,3.5,7.6,7.7,7.6
	c1,0,2-0.2,3.1-0.7c4.8-2.2,42.2-43,53.7-55.7l189.8-9.8c19.6-1,29.6-18.5,33.6-37.3c4-18.7,22.7-123.8,26.7-143.6
	C502.9,86.7,482.7,72.1,463.7,72.1L463.7,72.1z"/>
<g>
	<path d="M179.6,258.5l-5.3-5l-0.9,1c-3.9,2.3-8.8,4.3-14.3,4.5c-8.7,0.4-15.7-3.8-21.2-12.6c-2-3-2.6-5.6-3.2-9.4
		c-0.7-1.2-1.7-10.9-1.8-12.2c0-0.6,1.1-10.9,1.6-13.4c1.7-8.2,6.4-19.7,12.4-29.5c2.8-4.5,6.3-9.4,9-12.8
		c3-4.4,11.4-12.2,12.4-12.2l1.1,0.7c0.6,0.3,1.3,0.7,1.6,0.7l0.6,0.6l-0.5,2.6c-1.7,4.4-3.4,10.3-6.5,19.1l-7.3,22.8
		c-1.7,6-2.3,8.7-3.6,17.4c-1.1,4.8-1.1,5.3-1.3,9c-0.2,9.1,0.7,13.4,2.5,17.5c1.3,3.4,2.6,5.3,4,5.7c0.6,0.6,1.1,0.6,2.5,0.5
		c1.5-0.1,2-0.7,3.3-1.8c0-0.5,0.9-1.4,2-2.8l1.5-1.6l-1-0.9c-2.9-3.2-7.1-8.4-7.1-8.9c0-0.6,4-3.2,5.9-4.6l1-0.7l0.6,0
		c1.3,0.6,5.9,3.7,6.9,4.7c0.6,0.5,1.3,0.4,1.2-0.1c0.5,0,2-3.1,2.5-5.1c2.2-4.4,3-7.6,5.8-17.8c3.4-12.1,4.5-15.6,5.3-20.6
		c0.4-5.4,0.8-6.5,0.5-13.9c-0.9-6.3-0.8-7-1-10.8c-1.6-5.3-1.5-6.3-2-8.9c-2.2-6.4-5.7-11.2-10.2-14.6c-4.1-3.2-7.5-4-12.5-4.2
		c-3.3,0.2-5.6,0.3-8.9,1.4c-6.3,1.9-8.1,3.2-11,4.7c-1.1,1-3.2,3.3-3.7,3.9c-0.5,1.9-0.2,2.7,0.6,2.7c0,0.6-1.9,2.3-3.2,2.8l-0.6,0
		l-1-0.3c-2.4-1.5-3.5-2.6-3-5.5c-0.1-3.1,3-7.3,8.5-10.5c0.3-0.5,2.7-1.7,4.2-2.4l3.3-1.1l5.5-1.4c7.6-1.3,10.1-1.5,14.5-1
		c13.5,1.5,25.6,8.2,31.6,19.8c2.6,4.2,3,5.8,5,12.2c1.2,4.3,1.3,4.8,1.5,7.4l0.6,12.3c-0.3,7.1-3,18.7-6.7,27.6
		c-3.1,10.1-10.8,22.7-15.3,29.2l-0.9,1c4.1,3,10.8,8.7,16.7,13.7c4.2,4.2,5.8,5.6,9.4,9.4l1.8,1.9l0.5,0.5c0.1,1.2-7.3,8-9.2,8.5
		c-0.4,0-0.9-0.3-3.8-2.3C193,269.9,187,265.3,179.6,258.5z"/>
	<path d="M224.6,206c-1-21.9,0.3-53.2,7.3-74l10.8-0.7l1.4,0.2l0.5,7.6c1.4,30.8-2.7,61.8-1.3,92.6c0.2,4.1,0.5,16,6.9,15.7
		c20.8-0.9,25.4-27.9,24.7-44.2c-0.6-14.1-4-28.4-4.7-42.3l0.4-0.3c2-0.7,4.1-1.8,6.1-1.9l1.6,4.3c3.1,9.8,4,20.7,4.5,30.7
		c1,22.9-2.6,60.5-32.8,61.9C227,256.6,225.3,221.1,224.6,206z"/>
	<path d="M296.1,251.8l0.8-7.5c2.4-1.5,5.5-1,8-2.5l-0.1-1.4c-0.3-6.9-2-14.1-2.3-21.1c-0.9-19.8-0.3-61,6.3-79.2l-8.8,1.4
		c-1.7-0.9-2.9-4.6-3.7-6.5c1.2-3.4,23.6-6.4,26.7-6.6c1.1-0.1,2.9-0.1,3.8,0.7l-1.6,6.5c-0.8,0.9-7.3,3.1-8,2.7
		c1.5,33.9-4.4,68-2.8,102c1.4-0.1,5.9-0.5,5.6,1.1l-0.5,6.1c-3.7,2.4-14.4,3.9-18.7,4.1L296.1,251.8z"/>
	<path d="M336.4,253.5l-1.1-0.3c-0.1-2.1,0.1-4.2,1.1-6.1c0.4,0.4,0.1-0.9-0.3-0.5c5-12.8,9-25.1,11.8-37.6
		c2.9-12.6,6.5-24.8,10.5-37.4c4.1-12.6,10.9-26.3,13.9-38.9c-7.4,1.2-14.7,4.3-22.2,4.6l-5.3,0.2l-0.9-0.3l-1-3.3l1-2
		c12.2-1.2,24.9-6.2,38.1-7.4c0.2,0,0.8,6.9,0.9,7.8c1.1,25.2-24.3,89-36.3,112.6c7.4-0.3,14.2-2.1,21.6-2.5l0,0.5l-0.5,5.2
		c-1.3,1.4-19.2,4.8-21.9,5L336.4,253.5z"/>
	<path d="M436.1,240.2c-0.1-2.6,0.6-3.9,1.8-6.3c1.6-0.9,4.7-3.2,6.6-3.3c2.6-0.1,4.6,4.8,4.7,6.7c0.1,2-0.7,3.5-2.3,4.5
		c-1,2.2-3.4,3.5-5.8,3.6c-0.9,0-2.6-0.1-2.7-1.2C436.1,244.3,436.2,241.8,436.1,240.2z M440.9,216.8l-1-22.7
		c-0.3-6.3,6.8-68.3,11-70.3c-0.2-1.4,0.3-1.1,1.2-1.2c0.5,0,0.9,0.7,0.5,1.1l2-0.1c2.8,3.4,2.5,8,2.7,12.1
		c1.1,24.9-1.3,50.3-7.7,74.4c-1.2,4.4-0.3,6.4-5.2,6.6L440.9,216.8z"/>
</g>
</svg>
